<mxfile host="Electron" modified="2024-03-08T16:42:44.421Z" agent="Mozilla/5.0 (Windows NT 10.0; Win64; x64) AppleWebKit/537.36 (KHTML, like Gecko) draw.io/23.1.5 Chrome/120.0.6099.109 Electron/28.1.0 Safari/537.36" etag="6aShkiyPWwFHIWYWyyGk" version="23.1.5" type="device">
  <diagram name="Page-1" id="rQbpdcuisJjg6-mnoirO">
    <mxGraphModel dx="794" dy="519" grid="1" gridSize="10" guides="1" tooltips="1" connect="1" arrows="1" fold="1" page="1" pageScale="1" pageWidth="850" pageHeight="1100" math="0" shadow="0">
      <root>
        <mxCell id="0" />
        <mxCell id="1" parent="0" />
        <mxCell id="2MfejT5cuYfCgjiWeuP9-1" value="Kütüphaneci" style="shape=umlActor;html=1;verticalLabelPosition=bottom;verticalAlign=top;align=center;fillColor=#dae8fc;strokeColor=#6c8ebf;" vertex="1" parent="1">
          <mxGeometry x="50" y="110" width="40" height="90" as="geometry" />
        </mxCell>
        <mxCell id="2MfejT5cuYfCgjiWeuP9-2" value="Kütüphane Envanterini Yönet" style="ellipse;whiteSpace=wrap;html=1;fillColor=#dae8fc;strokeColor=#6c8ebf;" vertex="1" parent="1">
          <mxGeometry x="220" y="20" width="110" height="60" as="geometry" />
        </mxCell>
        <mxCell id="2MfejT5cuYfCgjiWeuP9-6" value="Rapor Oluştur" style="ellipse;whiteSpace=wrap;html=1;fillColor=#dae8fc;strokeColor=#6c8ebf;" vertex="1" parent="1">
          <mxGeometry x="250" y="90" width="110" height="60" as="geometry" />
        </mxCell>
        <mxCell id="2MfejT5cuYfCgjiWeuP9-7" value="Para Cezası Topla" style="ellipse;whiteSpace=wrap;html=1;fillColor=#dae8fc;strokeColor=#6c8ebf;" vertex="1" parent="1">
          <mxGeometry x="250" y="160" width="110" height="60" as="geometry" />
        </mxCell>
        <mxCell id="2MfejT5cuYfCgjiWeuP9-9" value="" style="edgeStyle=none;html=1;endArrow=none;verticalAlign=bottom;rounded=0;fillColor=#dae8fc;strokeColor=#6c8ebf;" edge="1" parent="1" source="2MfejT5cuYfCgjiWeuP9-1" target="2MfejT5cuYfCgjiWeuP9-2">
          <mxGeometry width="160" relative="1" as="geometry">
            <mxPoint x="330" y="270" as="sourcePoint" />
            <mxPoint x="490" y="270" as="targetPoint" />
          </mxGeometry>
        </mxCell>
        <mxCell id="2MfejT5cuYfCgjiWeuP9-10" value="" style="edgeStyle=none;html=1;endArrow=none;verticalAlign=bottom;rounded=0;fillColor=#dae8fc;strokeColor=#6c8ebf;" edge="1" parent="1" source="2MfejT5cuYfCgjiWeuP9-1" target="2MfejT5cuYfCgjiWeuP9-6">
          <mxGeometry width="160" relative="1" as="geometry">
            <mxPoint x="160" y="151" as="sourcePoint" />
            <mxPoint x="252" y="84" as="targetPoint" />
          </mxGeometry>
        </mxCell>
        <mxCell id="2MfejT5cuYfCgjiWeuP9-11" value="" style="edgeStyle=none;html=1;endArrow=none;verticalAlign=bottom;rounded=0;fillColor=#dae8fc;strokeColor=#6c8ebf;" edge="1" parent="1" source="2MfejT5cuYfCgjiWeuP9-1" target="2MfejT5cuYfCgjiWeuP9-7">
          <mxGeometry width="160" relative="1" as="geometry">
            <mxPoint x="160" y="161" as="sourcePoint" />
            <mxPoint x="263" y="140" as="targetPoint" />
          </mxGeometry>
        </mxCell>
        <mxCell id="2MfejT5cuYfCgjiWeuP9-18" value="&amp;lt;&amp;lt;include&amp;gt;&amp;gt;" style="edgeStyle=none;html=1;endArrow=open;verticalAlign=bottom;dashed=1;labelBackgroundColor=none;rounded=0;fillColor=#dae8fc;strokeColor=#6c8ebf;entryX=0;entryY=0.5;entryDx=0;entryDy=0;" edge="1" parent="1" source="2MfejT5cuYfCgjiWeuP9-2" target="2MfejT5cuYfCgjiWeuP9-22">
          <mxGeometry width="160" relative="1" as="geometry">
            <mxPoint x="330" y="50" as="sourcePoint" />
            <mxPoint x="490" y="50" as="targetPoint" />
          </mxGeometry>
        </mxCell>
        <mxCell id="2MfejT5cuYfCgjiWeuP9-19" value="&amp;lt;&amp;lt;include&amp;gt;&amp;gt;" style="edgeStyle=none;html=1;endArrow=open;verticalAlign=bottom;dashed=1;labelBackgroundColor=none;rounded=0;fillColor=#dae8fc;strokeColor=#6c8ebf;" edge="1" parent="1" target="2MfejT5cuYfCgjiWeuP9-23">
          <mxGeometry width="160" relative="1" as="geometry">
            <mxPoint x="320" y="60" as="sourcePoint" />
            <mxPoint x="500" y="100" as="targetPoint" />
          </mxGeometry>
        </mxCell>
        <mxCell id="2MfejT5cuYfCgjiWeuP9-21" value="&amp;lt;&amp;lt;include&amp;gt;&amp;gt;" style="edgeStyle=none;html=1;endArrow=open;verticalAlign=bottom;dashed=1;labelBackgroundColor=none;rounded=0;fillColor=#dae8fc;strokeColor=#6c8ebf;exitX=1;exitY=1;exitDx=0;exitDy=0;" edge="1" parent="1" source="2MfejT5cuYfCgjiWeuP9-2" target="2MfejT5cuYfCgjiWeuP9-24">
          <mxGeometry width="160" relative="1" as="geometry">
            <mxPoint x="330" y="70" as="sourcePoint" />
            <mxPoint x="490" y="130" as="targetPoint" />
          </mxGeometry>
        </mxCell>
        <mxCell id="2MfejT5cuYfCgjiWeuP9-22" value="Kitap Durumu Kontrolü" style="ellipse;whiteSpace=wrap;html=1;fillColor=#1ba1e2;fontColor=#ffffff;strokeColor=#006EAF;" vertex="1" parent="1">
          <mxGeometry x="510" y="20" width="120" height="50" as="geometry" />
        </mxCell>
        <mxCell id="2MfejT5cuYfCgjiWeuP9-23" value="Kitap İadesi Al" style="ellipse;whiteSpace=wrap;html=1;fillColor=#1ba1e2;fontColor=#ffffff;strokeColor=#006EAF;" vertex="1" parent="1">
          <mxGeometry x="510" y="80" width="120" height="50" as="geometry" />
        </mxCell>
        <mxCell id="2MfejT5cuYfCgjiWeuP9-24" value="Kitabı Yenile" style="ellipse;whiteSpace=wrap;html=1;fillColor=#1ba1e2;fontColor=#ffffff;strokeColor=#006EAF;" vertex="1" parent="1">
          <mxGeometry x="510" y="140" width="120" height="50" as="geometry" />
        </mxCell>
        <mxCell id="2MfejT5cuYfCgjiWeuP9-25" value="Üye" style="shape=umlActor;html=1;verticalLabelPosition=bottom;verticalAlign=top;align=center;fillColor=#fff2cc;strokeColor=#d6b656;" vertex="1" parent="1">
          <mxGeometry x="50" y="270" width="55" height="100" as="geometry" />
        </mxCell>
        <mxCell id="2MfejT5cuYfCgjiWeuP9-26" value="" style="edgeStyle=none;html=1;endArrow=none;verticalAlign=bottom;rounded=0;exitX=0.818;exitY=0.3;exitDx=0;exitDy=0;exitPerimeter=0;entryX=0.019;entryY=0.676;entryDx=0;entryDy=0;entryPerimeter=0;fillColor=#fff2cc;strokeColor=#d6b656;" edge="1" parent="1" source="2MfejT5cuYfCgjiWeuP9-25" target="2MfejT5cuYfCgjiWeuP9-27">
          <mxGeometry width="160" relative="1" as="geometry">
            <mxPoint x="120" y="340" as="sourcePoint" />
            <mxPoint x="280" y="340" as="targetPoint" />
          </mxGeometry>
        </mxCell>
        <mxCell id="2MfejT5cuYfCgjiWeuP9-27" value="Katalogda Ara" style="ellipse;whiteSpace=wrap;html=1;fillColor=#fff2cc;strokeColor=#d6b656;" vertex="1" parent="1">
          <mxGeometry x="265" y="250" width="140" height="60" as="geometry" />
        </mxCell>
        <mxCell id="2MfejT5cuYfCgjiWeuP9-28" value="" style="edgeStyle=none;html=1;endArrow=none;verticalAlign=bottom;rounded=0;entryX=0;entryY=0.5;entryDx=0;entryDy=0;fillColor=#fff2cc;strokeColor=#d6b656;" edge="1" parent="1" target="2MfejT5cuYfCgjiWeuP9-29" source="2MfejT5cuYfCgjiWeuP9-25">
          <mxGeometry width="160" relative="1" as="geometry">
            <mxPoint x="100" y="420" as="sourcePoint" />
            <mxPoint x="280" y="420" as="targetPoint" />
          </mxGeometry>
        </mxCell>
        <mxCell id="2MfejT5cuYfCgjiWeuP9-29" value="Yer Tut" style="ellipse;whiteSpace=wrap;html=1;fillColor=#fff2cc;strokeColor=#d6b656;" vertex="1" parent="1">
          <mxGeometry x="270" y="320" width="140" height="50" as="geometry" />
        </mxCell>
        <mxCell id="2MfejT5cuYfCgjiWeuP9-30" value="" style="edgeStyle=none;html=1;endArrow=none;verticalAlign=bottom;rounded=0;entryX=0;entryY=0.5;entryDx=0;entryDy=0;fillColor=#fff2cc;strokeColor=#d6b656;" edge="1" parent="1" target="2MfejT5cuYfCgjiWeuP9-31" source="2MfejT5cuYfCgjiWeuP9-25">
          <mxGeometry width="160" relative="1" as="geometry">
            <mxPoint x="100" y="443" as="sourcePoint" />
            <mxPoint x="270" y="500" as="targetPoint" />
          </mxGeometry>
        </mxCell>
        <mxCell id="2MfejT5cuYfCgjiWeuP9-31" value="Hesabı Görüntüle" style="ellipse;whiteSpace=wrap;html=1;fillColor=#fff2cc;strokeColor=#d6b656;" vertex="1" parent="1">
          <mxGeometry x="275" y="380" width="130" height="50" as="geometry" />
        </mxCell>
        <mxCell id="2MfejT5cuYfCgjiWeuP9-32" value="&amp;lt;&amp;lt;include&amp;gt;&amp;gt;" style="edgeStyle=none;html=1;endArrow=open;verticalAlign=bottom;dashed=1;labelBackgroundColor=none;rounded=0;fillColor=#fad7ac;strokeColor=#b46504;entryX=0;entryY=0.5;entryDx=0;entryDy=0;" edge="1" parent="1" source="2MfejT5cuYfCgjiWeuP9-27" target="2MfejT5cuYfCgjiWeuP9-33">
          <mxGeometry width="160" relative="1" as="geometry">
            <mxPoint x="410" y="300" as="sourcePoint" />
            <mxPoint x="570" y="300" as="targetPoint" />
          </mxGeometry>
        </mxCell>
        <mxCell id="2MfejT5cuYfCgjiWeuP9-33" value="Kitap Detaylarını Görüntüle" style="ellipse;whiteSpace=wrap;html=1;fillColor=#fad7ac;strokeColor=#b46504;" vertex="1" parent="1">
          <mxGeometry x="565" y="250" width="140" height="70" as="geometry" />
        </mxCell>
        <mxCell id="2MfejT5cuYfCgjiWeuP9-35" value="Yer Tutmayı İptal Et" style="ellipse;whiteSpace=wrap;html=1;fillColor=#fad7ac;strokeColor=#b46504;" vertex="1" parent="1">
          <mxGeometry x="580" y="340" width="140" height="70" as="geometry" />
        </mxCell>
        <mxCell id="2MfejT5cuYfCgjiWeuP9-36" value="&amp;lt;&amp;lt;extend&amp;gt;&amp;gt;" style="edgeStyle=none;html=1;startArrow=open;endArrow=none;startSize=12;verticalAlign=bottom;dashed=1;labelBackgroundColor=none;rounded=0;exitX=1;exitY=0.5;exitDx=0;exitDy=0;fillColor=#fad7ac;strokeColor=#b46504;" edge="1" parent="1" source="2MfejT5cuYfCgjiWeuP9-29" target="2MfejT5cuYfCgjiWeuP9-35">
          <mxGeometry width="160" relative="1" as="geometry">
            <mxPoint x="420" y="370" as="sourcePoint" />
            <mxPoint x="580" y="370" as="targetPoint" />
          </mxGeometry>
        </mxCell>
        <mxCell id="2MfejT5cuYfCgjiWeuP9-40" value="Sistem" style="shape=umlActor;html=1;verticalLabelPosition=bottom;verticalAlign=top;align=center;fillColor=#d5e8d4;strokeColor=#82b366;" vertex="1" parent="1">
          <mxGeometry x="63" y="430" width="27" height="70" as="geometry" />
        </mxCell>
        <mxCell id="2MfejT5cuYfCgjiWeuP9-41" value="" style="edgeStyle=none;html=1;endArrow=none;verticalAlign=bottom;rounded=0;entryX=0;entryY=0.4;entryDx=0;entryDy=0;entryPerimeter=0;fillColor=#d5e8d4;strokeColor=#82b366;" edge="1" parent="1" source="2MfejT5cuYfCgjiWeuP9-40" target="2MfejT5cuYfCgjiWeuP9-42">
          <mxGeometry width="160" relative="1" as="geometry">
            <mxPoint x="120" y="470" as="sourcePoint" />
            <mxPoint x="280" y="470" as="targetPoint" />
          </mxGeometry>
        </mxCell>
        <mxCell id="2MfejT5cuYfCgjiWeuP9-42" value="Gecikme Bildirimi Gönder" style="ellipse;whiteSpace=wrap;html=1;fillColor=#d5e8d4;strokeColor=#82b366;" vertex="1" parent="1">
          <mxGeometry x="300" y="440" width="140" height="70" as="geometry" />
        </mxCell>
      </root>
    </mxGraphModel>
  </diagram>
</mxfile>
